Normalized EMG Linear Envelopes
nRows=119
nColumns=4

endheader
time	 med_gas_r	  soleus_r	 tib_ant_r	
2.79133	  0.002925	  0.004851	  0.001521	
2.8629	  0.002930	  0.004922	  0.001546	
2.93448	  0.002986	  0.005400	  0.001543	
3.00605	  0.003115	  0.006414	  0.001516	
3.07762	  0.003239	  0.007435	  0.001489	
3.14919	  0.003263	  0.007581	  0.001482	
3.22077	  0.003177	  0.006696	  0.001495	
3.29234	  0.003015	  0.005549	  0.001503	
3.36391	  0.002816	  0.004825	  0.001492	
3.43548	  0.002640	  0.004606	  0.001476	
3.50706	  0.002530	  0.004677	  0.001471	
3.57863	  0.002501	  0.004839	  0.001482	
3.6502	  0.002584	  0.005037	  0.001513	
3.72177	  0.002764	  0.005302	  0.001566	
3.79335	  0.002933	  0.005509	  0.001616	
3.86492	  0.002975	  0.005431	  0.001628	
3.93649	  0.002874	  0.005106	  0.001605	
4.00806	  0.002724	  0.004839	  0.001597	
4.07964	  0.002657	  0.004794	  0.001636	
4.15121	  0.002744	  0.004913	  0.001704	
4.22278	  0.002916	  0.005116	  0.001781	
4.29435	  0.003022	  0.005308	  0.001861	
4.36593	  0.002990	  0.005332	  0.001933	
4.4375	  0.002877	  0.005106	  0.001985	
4.50907	  0.002812	  0.004807	  0.002010	
4.58065	  0.002959	  0.004773	  0.002021	
4.65222	  0.003473	  0.005203	  0.002043	
4.72379	  0.004323	  0.005972	  0.002065	
4.79536	  0.004894	  0.006484	  0.002004	
4.86694	  0.003475	  0.005430	  0.001712	
4.93851	 -0.002673	  0.000826	  0.001020	
5.01008	 -0.015153	 -0.008419	 -0.000100	
5.08165	 -0.028699	 -0.018235	 -0.001045	
5.15323	 -0.023184	 -0.013610	  0.000063	
5.2248	  0.039449	  0.033550	  0.006474	
5.29637	  0.194748	  0.148745	  0.020658	
5.36794	  0.424663	  0.316741	  0.039790	
5.43952	  0.637232	  0.471187	  0.055472	
5.51109	  0.740768	  0.554941	  0.061593	
5.58266	  0.731733	  0.577264	  0.060087	
5.65423	  0.677970	  0.586876	  0.056892	
5.72581	  0.637933	  0.612025	  0.055617	
5.79738	  0.622929	  0.642255	  0.055936	
5.86895	  0.619933	  0.650708	  0.056017	
5.94052	  0.626878	  0.626853	  0.055608	
6.0121	  0.656919	  0.588501	  0.056108	
6.08367	  0.712308	  0.561481	  0.058120	
6.15524	  0.772749	  0.553972	  0.060574	
6.22681	  0.815922	  0.554653	  0.062390	
6.29839	  0.830739	  0.551527	  0.063066	
6.36996	  0.812091	  0.545061	  0.061574	
6.44153	  0.766716	  0.542818	  0.057524	
6.5131	  0.719943	  0.547315	  0.053177	
6.58468	  0.699704	  0.551877	  0.051817	
6.65625	  0.712745	  0.548711	  0.054529	
6.72782	  0.735059	  0.533731	  0.058872	
6.7994	  0.732687	  0.503943	  0.060647	
6.87097	  0.700360	  0.466035	  0.058340	
6.94254	  0.666107	  0.441407	  0.055002	
7.01411	  0.656174	  0.445642	  0.054061	
7.08569	  0.674891	  0.473488	  0.055183	
7.15726	  0.715837	  0.511777	  0.055950	
7.22883	  0.766079	  0.547952	  0.055315	
7.3004	  0.799056	  0.567837	  0.054017	
7.37198	  0.790835	  0.566124	  0.053364	
7.44355	  0.745266	  0.549285	  0.053942	
7.51512	  0.689939	  0.525587	  0.054627	
7.58669	  0.653848	  0.506524	  0.053661	
7.65827	  0.649779	  0.504556	  0.051068	
7.72984	  0.666462	  0.520679	  0.048679	
7.80141	  0.681226	  0.542758	  0.047699	
7.87298	  0.687237	  0.555064	  0.047936	
7.94456	  0.694169	  0.550877	  0.048781	
8.01613	  0.702046	  0.536974	  0.049294	
8.0877	  0.700935	  0.523332	  0.048269	
8.15927	  0.692295	  0.514609	  0.045508	
8.23085	  0.687207	  0.510611	  0.042532	
8.30242	  0.689752	  0.508340	  0.041198	
8.37399	  0.695319	  0.505354	  0.041813	
8.44556	  0.702895	  0.501291	  0.043207	
8.51714	  0.715678	  0.496919	  0.044411	
8.58871	  0.723340	  0.492817	  0.045462	
8.66028	  0.703740	  0.486463	  0.046712	
8.73185	  0.656980	  0.474849	  0.048134	
8.80343	  0.616468	  0.464057	  0.049323	
8.875	  0.610520	  0.465735	  0.050060	
8.94657	  0.631714	  0.476691	  0.050505	
9.01815	  0.654060	  0.477962	  0.050400	
9.08972	  0.665297	  0.461803	  0.049134	
9.16129	  0.669980	  0.439828	  0.046878	
9.23286	  0.669004	  0.421062	  0.044594	
9.30444	  0.657181	  0.403500	  0.043036	
9.37601	  0.636444	  0.387463	  0.042130	
9.44758	  0.614042	  0.380297	  0.041318	
9.51915	  0.594707	  0.388758	  0.040564	
9.59073	  0.581387	  0.411323	  0.040308	
9.6623	  0.577339	  0.434586	  0.040544	
9.73387	  0.583126	  0.440143	  0.040784	
9.80544	  0.594904	  0.418785	  0.040651	
9.87702	  0.609907	  0.382240	  0.040281	
9.94859	  0.632799	  0.361827	  0.040406	
10.0202	  0.675791	  0.380678	  0.041678	
10.0917	  0.739509	  0.424488	  0.043665	
10.1633	  0.789026	  0.457134	  0.045046	
10.2349	  0.779119	  0.458369	  0.044958	
10.3065	  0.707260	  0.422755	  0.044041	
10.378	  0.611937	  0.342181	  0.043895	
10.4496	  0.532355	  0.225444	  0.043800	
10.5212	  0.489115	  0.112789	  0.039199	
10.5927	  0.478439	  0.041005	  0.027907	
10.6643	  0.474652	  0.012789	  0.014829	
10.7359	  0.455665	  0.009288	  0.005977	
10.8075	  0.429481	  0.013282	  0.002412	
10.879	  0.422925	  0.016982	  0.002009	
10.9506	  0.442644	  0.019007	  0.002701	
11.0222	  0.464341	  0.019783	  0.003354	
11.0937	  0.459530	  0.019439	  0.003604	
11.1653	  0.417124	  0.017782	  0.003465	
11.2369	  0.347554	  0.015089	  0.003087	
